# xmcd
#
# Track frame offsets:
#	150
#	17642
#	37224
#	52762
#	72743
#	90199
#	103354
#	119195
#	136884
#	145402
#	164761
#	183354
#	200175
#	216791
#
# Disc length: 3172 seconds
#
# Revision: 0
# Processed by: cddbd v1.5.2PL0 Copyright (c) Steve Scherf et al.
# Submitted via: MusicManager 7.3.0.0 
#
DISCID=df0c620e
DTITLE=OLLIE AUSTIN - LATE IN THE EVENING
DYEAR=1900
DGENRE=country
TTITLE0=I THREW IT ALL AWAY
TTITLE1=BOULDER TO BIRMINGHAM
TTITLE2=THE LOST HIGHWAY
TTITLE3=SWEET MUSIC MAN
TTITLE4=IT TURNS ME INSIDE OUT
TTITLE5=RAKE AND RAMBLING MAN
TTITLE6=I DON'T THINK MUCH ABOUT HER NO MORE
TTITLE7=I DON'T WANT TO BE ALONE TONIGHT
TTITLE8=A FOOL SUCH AS I
TTITLE9=DARBY'S CASTLE
TTITLE10=FUNNY HOW TIME SLIPS AWAY
TTITLE11=GARDEN PARTY
TTITLE12=TWELFTH OF NEVER
TTITLE13=LATE IN THE EVENING
EXTD=
EXTT0=
EXTT1=
EXTT2=
EXTT3=
EXTT4=
EXTT5=
EXTT6=
EXTT7=
EXTT8=
EXTT9=
EXTT10=
EXTT11=
EXTT12=
EXTT13=
PLAYORDER=
